<?xml version="1.0" standalone="no"?>
<!DOCTYPE svg PUBLIC "-//W3C//DTD SVG 20010904//EN"
 "http://www.w3.org/TR/2001/REC-SVG-20010904/DTD/svg10.dtd">
<svg version="1.0" xmlns="http://www.w3.org/2000/svg"
 width="238.000000pt" height="243.000000pt" viewBox="0 0 238.000000 243.000000"
 preserveAspectRatio="xMidYMid meet">
<metadata>
Created by potrace 1.15, written by Peter Selinger 2001-2017
</metadata>
<g transform="translate(0.000000,243.000000) scale(0.100000,-0.100000)"
fill="#000000" stroke="none">
<path d="M0 1215 l0 -1215 1190 0 1190 0 0 1215 0 1215 -1190 0 -1190 0 0
-1215z m1190 610 l0 -445 -515 0 -515 0 0 445 0 445 515 0 515 0 0 -445z m770
53 l0 -392 70 69 70 69 45 -44 c25 -24 45 -50 45 -56 0 -12 -282 -286 -302
-293 -12 -4 -298 278 -298 294 0 6 20 31 45 55 l45 44 70 -69 70 -69 0 327 0
327 -255 0 -255 0 0 65 0 65 325 0 325 0 0 -392z m-1303 -730 c79 -79 143
-147 143 -153 0 -6 -20 -31 -45 -55 l-45 -44 -70 69 -70 69 0 -327 0 -327 255
0 255 0 0 -65 0 -65 -325 0 -325 0 0 392 0 392 -70 -69 -70 -69 -45 44 c-25
24 -45 50 -45 56 0 14 290 293 305 294 5 0 74 -64 152 -142z m1563 -453 l0
-445 -515 0 -515 0 0 445 0 445 515 0 515 0 0 -445z"/>
<path d="M300 1825 l0 -315 380 0 380 0 0 315 0 315 -380 0 -380 0 0 -315z"/>
<path d="M1330 695 l0 -315 380 0 380 0 0 315 0 315 -380 0 -380 0 0 -315z"/>
</g>
</svg>
